<?xml version="1.0" standalone="no"?>
<!DOCTYPE svg PUBLIC "-//W3C//DTD SVG 20010904//EN"
 "http://www.w3.org/TR/2001/REC-SVG-20010904/DTD/svg10.dtd">
<svg version="1.0" xmlns="http://www.w3.org/2000/svg"
 width="860.000000pt" height="805.000000pt" viewBox="0 0 860.000000 805.000000"
 preserveAspectRatio="xMidYMid meet">
<metadata>
Created by potrace 1.16, written by Peter Selinger 2001-2019
</metadata>
<g transform="translate(0.000000,805.000000) scale(0.100000,-0.100000)"
fill="#000000" stroke="none">
<path d="M6317 6962 c102 -581 88 -1184 -43 -1771 l-26 -114 41 -88 c95 -204
155 -402 188 -626 24 -163 24 -504 0 -663 -71 -465 -257 -843 -577 -1174 -462
-478 -1031 -705 -1709 -683 -241 8 -436 43 -643 116 l-83 30 -132 -44 c-505
-171 -1085 -251 -1620 -224 -132 6 -213 14 -222 22 -21 16 73 -93 173 -203
275 -298 703 -609 1084 -787 323 -150 687 -260 1017 -307 389 -55 811 -48
1185 20 949 173 1800 727 2339 1524 344 508 548 1070 612 1685 16 154 16 557
0 705 -104 949 -522 1757 -1239 2390 -74 66 -279 222 -331 253 l-28 16 14 -77z"/>
</g>
</svg>
